# xmcd
# 
# Track frame offsets:
#     150
#     34053
#     67198
#     92152
#     128101
#     153530
#     181196
#     221121
#     243942
# 
# Disc length: 3630
# 
# Revision: 5
# Processed by: cddbd v1.5.2PL0 Copyright (c) Steve Scherf et al.
# Submitted via: fre:ac v1.0.27
# 
DISCID=7e0e2c09
DTITLE=John Scofield - Combo 66
DYEAR=2018
DGENRE=Jazz
TTITLE0=Can't Dance
TTITLE1=Combo Theme
TTITLE2=Icons at the Fair
TTITLE3=WIlla Jean
TTITLE4=Uncle Southern
TTITLE5=Dance Swing
TTITLE6=New Waltzo
TTITLE7=I'm Sleeping In
TTITLE8=King of Belgium
EXTD=YEAR: 2018
EXTT0=
EXTT1=
EXTT2=
EXTT3=
EXTT4=
EXTT5=
EXTT6=
EXTT7=
EXTT8=
PLAYORDER=
